<svg xmlns="http://www.w3.org/2000/svg" viewBox="0 0 512 512">
  <defs>
    <linearGradient id="grad1" x1="0%" y1="0%" x2="100%" y2="100%">
      <stop offset="0%" style="stop-color:#3b82f6;stop-opacity:1" />
      <stop offset="100%" style="stop-color:#0f172a;stop-opacity:1" />
    </linearGradient>
  </defs>
  <rect width="512" height="512" rx="128" fill="url(#grad1)" />
  <path d="M373.9 196.9L288 340.5c-4 6.7-14 6.7-18 0l-54.7-91.1c-2.7-4.5-8.8-4.5-11.5 0L144.1 364.5c-4 6.7 0.8 15.1 8.6 15.1h73.6l15.6-26.6 62 103.7c4 6.7 14 6.7 18 0l21.2-35.4 39.4-65.7c2.7-4.5 9-4.3 11.4 0.4z" fill="white" opacity="0.2"/>
  <path fill="white" d="M351.4 207c-9.1-12.7-27.2-16.1-40.1-4-23.9 22.4-74.8 70.3-95.3 89.6-5.8 5.5-5.9 14.6-0.3 20.2 5.5 5.5 14.4 5.4 20-0.1 20.3-19.8 70-66.9 94-89.6 1.3-1.2 2.5-2.5 3.6-3.8 0 0 0 0 0 0 10.7-12.5 28.9-10.4 40.1 2.3 8.3 9.4 12.3 21 11.7 32.5-0.7 14.2-7 27.5-17.7 37.2-22.1 20.1-71.1 64.9-95.3 86.9-5.9 5.4-6.2 14.5-0.7 20.2 5.4 5.6 14.3 5.4 20-0.1 23.3-21.2 72.1-65.8 95-86.8 14.8-13.6 23.6-32.2 24.6-52.2 0.8-16.8-5.1-33.6-17.5-47.5-0.7-0.9-1.4-1.7-2.1-2.5z"/>
  <path fill="white" d="M228.4 179c-9.1-12.7-27.2-16.1-40.1-4-23.9 22.4-74.8 70.3-95.3 89.6-5.8 5.5-5.9 14.6-0.3 20.2 5.5 5.5 14.4 5.4 20-0.1 20.3-19.8 70-66.9 94-89.6 1.3-1.2 2.5-2.5 3.6-3.8 0 0 0 0 0 0 10.7-12.5 28.9-10.4 40.1 2.3 8.3 9.4 12.3 21 11.7 32.5-0.7 14.2-7 27.5-17.7 37.2-22.1 20.1-71.1 64.9-95.3 86.9-5.9 5.4-6.2 14.5-0.7 20.2 5.4 5.6 14.3 5.4 20-0.1 23.3-21.2 72.1-65.8 95-86.8 14.8-13.6 23.6-32.2 24.6-52.2 0.8-16.8-5.1-33.6-17.5-47.5-0.7-0.9-1.4-1.7-2.1-2.5z" transform="translate(60, -60)"/>
  <path d="M165 390a30 30 0 1 0 0-60 30 30 0 1 0 0 60z" fill="white"/>
</svg>
